<svg width="242" height="56" viewBox="0 0 242 56" fill="none" xmlns="http://www.w3.org/2000/svg">
<path opacity="0.5" d="M29.2232 0.221225L46.0278 32.1628C46.1002 32.3115 45.9881 32.4831 45.8278 32.4832L36.779 32.4861L28.3617 16.4753C28.2893 16.3266 28.0831 16.3267 27.9951 16.4754L17.9026 32.4923L8.89972 32.4953C8.73936 32.4953 8.64525 32.3238 8.7332 32.1751L28.8567 0.221348C28.9555 0.0840563 29.1617 0.0839876 29.2232 0.221225Z" fill="#00875F"/>
<path opacity="0.5" d="M36.7786 32.4861L41.1345 40.7431C41.2069 40.8918 41.0948 41.0634 40.9344 41.0635L12.8598 41.0841C12.6995 41.0842 12.6053 40.9126 12.6933 40.7639L17.9022 32.4923L36.7786 32.4861Z" fill="#00875F"/>
<path d="M28.3608 16.4755L36.7782 32.4864L17.9018 32.4926L27.9943 16.4757C28.0823 16.3269 28.2884 16.3269 28.3608 16.4755Z" fill="#00875F"/>
<path d="M83.3758 30.0696H87.1111C87.0362 31.2939 86.6989 32.3808 86.0992 33.3302C85.5079 34.2797 84.6792 35.0209 83.6131 35.554C82.5554 36.087 81.2812 36.3535 79.7903 36.3535C78.6243 36.3535 77.5791 36.1536 76.6546 35.7538C75.7302 35.3457 74.939 34.7627 74.281 34.0048C73.6314 33.2469 73.1358 32.3308 72.7944 31.2564C72.4529 30.182 72.2821 28.9786 72.2821 27.646V26.3842C72.2821 25.0516 72.457 23.8482 72.8068 22.7738C73.165 21.6911 73.673 20.7708 74.331 20.0129C74.9973 19.255 75.7926 18.672 76.7171 18.2639C77.6416 17.8558 78.6743 17.6517 79.8153 17.6517C81.3311 17.6517 82.6096 17.9266 83.6506 18.4762C84.7 19.0259 85.5121 19.7838 86.0867 20.7499C86.6697 21.7161 87.0195 22.8154 87.1361 24.0481H83.3883C83.3466 23.3151 83.2009 22.6947 82.951 22.1866C82.7012 21.6702 82.3222 21.283 81.8142 21.0248C81.3145 20.7583 80.6482 20.625 79.8153 20.625C79.1907 20.625 78.6452 20.7416 78.1788 20.9748C77.7124 21.208 77.3209 21.562 77.0044 22.0367C76.688 22.5114 76.4506 23.1111 76.2923 23.8357C76.1424 24.5519 76.0675 25.3931 76.0675 26.3592V27.646C76.0675 28.5871 76.1383 29.4158 76.2799 30.1321C76.4214 30.84 76.638 31.4396 76.9295 31.931C77.2293 32.4141 77.6124 32.7805 78.0788 33.0304C78.5536 33.2719 79.1241 33.3927 79.7903 33.3927C80.5732 33.3927 81.2187 33.2678 81.7267 33.0179C82.2348 32.7681 82.6221 32.3974 82.8886 31.906C83.1634 31.4147 83.3258 30.8025 83.3758 30.0696ZM96.6432 33.0554V27.0338C96.6432 26.6008 96.5724 26.2301 96.4308 25.922C96.2892 25.6055 96.0685 25.3598 95.7687 25.1849C95.4772 25.01 95.0982 24.9226 94.6318 24.9226C94.2321 24.9226 93.8864 24.9933 93.5949 25.1349C93.3034 25.2682 93.0786 25.4639 92.9203 25.7221C92.7621 25.9719 92.6829 26.2676 92.6829 26.6091H89.085C89.085 26.0344 89.2183 25.4889 89.4848 24.9725C89.7513 24.4562 90.1386 24.0022 90.6466 23.6108C91.1547 23.211 91.7585 22.8987 92.4581 22.6738C93.166 22.449 93.9572 22.3365 94.8317 22.3365C95.8811 22.3365 96.8139 22.5114 97.6301 22.8612C98.4463 23.211 99.0876 23.7357 99.554 24.4353C100.029 25.1349 100.266 26.0094 100.266 27.0588V32.843C100.266 33.5842 100.312 34.1922 100.404 34.667C100.495 35.1334 100.628 35.5415 100.803 35.8913V36.1036H97.1679C96.993 35.7372 96.8597 35.2791 96.7681 34.7294C96.6848 34.1714 96.6432 33.6134 96.6432 33.0554ZM97.1179 27.8709L97.1429 29.9072H95.1315C94.6568 29.9072 94.2446 29.9613 93.8948 30.0696C93.545 30.1779 93.2576 30.3319 93.0327 30.5318C92.8079 30.7234 92.6413 30.9483 92.533 31.2064C92.4331 31.4646 92.3831 31.7478 92.3831 32.056C92.3831 32.3641 92.4539 32.6431 92.5955 32.893C92.7371 33.1345 92.9411 33.3261 93.2076 33.4676C93.4742 33.6009 93.7865 33.6675 94.1446 33.6675C94.686 33.6675 95.1565 33.5593 95.5563 33.3427C95.9561 33.1262 96.2642 32.8597 96.4808 32.5432C96.7056 32.2267 96.8222 31.9269 96.8306 31.6437L97.78 33.1678C97.6468 33.5093 97.4635 33.8633 97.2303 34.2297C97.0055 34.5962 96.7181 34.9418 96.3683 35.2666C96.0185 35.5831 95.5979 35.8455 95.1066 36.0537C94.6152 36.2536 94.0322 36.3535 93.3576 36.3535C92.4997 36.3535 91.721 36.1828 91.0214 35.8413C90.3301 35.4915 89.7804 35.0126 89.3723 34.4046C88.9726 33.7883 88.7727 33.0887 88.7727 32.3058C88.7727 31.5979 88.9059 30.9691 89.1725 30.4194C89.439 29.8697 89.8304 29.4075 90.3468 29.0327C90.8715 28.6496 91.5253 28.3622 92.3082 28.1707C93.091 27.9708 93.9989 27.8709 95.0316 27.8709H97.1179ZM110.348 32.3683C110.348 32.1101 110.273 31.8769 110.123 31.6687C109.973 31.4605 109.694 31.2689 109.286 31.094C108.886 30.9108 108.307 30.7442 107.549 30.5943C106.866 30.4444 106.229 30.257 105.638 30.0321C105.055 29.7989 104.547 29.5199 104.114 29.1951C103.689 28.8703 103.356 28.4872 103.114 28.0458C102.873 27.596 102.752 27.0838 102.752 26.5091C102.752 25.9428 102.873 25.4098 103.114 24.9101C103.364 24.4103 103.718 23.9689 104.176 23.5858C104.643 23.1944 105.209 22.8904 105.875 22.6738C106.55 22.449 107.308 22.3365 108.149 22.3365C109.323 22.3365 110.331 22.5239 111.172 22.8987C112.022 23.2735 112.671 23.7899 113.121 24.4478C113.579 25.0975 113.808 25.8387 113.808 26.6715H110.21C110.21 26.3217 110.135 26.0094 109.986 25.7346C109.844 25.4514 109.619 25.2307 109.311 25.0725C109.011 24.9059 108.62 24.8226 108.137 24.8226C107.737 24.8226 107.391 24.8934 107.1 25.035C106.808 25.1682 106.583 25.3515 106.425 25.5847C106.275 25.8095 106.2 26.0594 106.2 26.3342C106.2 26.5425 106.242 26.7298 106.325 26.8964C106.417 27.0547 106.562 27.2004 106.762 27.3337C106.962 27.4669 107.22 27.5919 107.537 27.7085C107.862 27.8167 108.262 27.9167 108.736 28.0083C109.711 28.2082 110.581 28.4705 111.347 28.7953C112.113 29.1118 112.721 29.5449 113.171 30.0946C113.621 30.6359 113.846 31.348 113.846 32.2309C113.846 32.8305 113.713 33.3802 113.446 33.8799C113.18 34.3796 112.796 34.8169 112.297 35.1917C111.797 35.5581 111.197 35.8455 110.498 36.0537C109.806 36.2536 109.028 36.3535 108.162 36.3535C106.904 36.3535 105.838 36.1286 104.963 35.6789C104.097 35.2291 103.439 34.6586 102.99 33.9674C102.548 33.2678 102.327 32.5515 102.327 31.8186H105.738C105.755 32.31 105.88 32.7056 106.113 33.0054C106.354 33.3052 106.658 33.5218 107.025 33.655C107.4 33.7883 107.803 33.8549 108.237 33.8549C108.703 33.8549 109.09 33.7925 109.398 33.6675C109.707 33.5343 109.94 33.3594 110.098 33.1428C110.265 32.918 110.348 32.6598 110.348 32.3683ZM119.692 16.9146V36.1036H116.095V16.9146H119.692ZM119.18 28.8703H118.193C118.202 27.9292 118.327 27.063 118.568 26.2718C118.81 25.4722 119.155 24.781 119.605 24.198C120.055 23.6066 120.592 23.1486 121.217 22.8238C121.85 22.4989 122.549 22.3365 123.315 22.3365C123.982 22.3365 124.585 22.4323 125.127 22.6239C125.677 22.8071 126.147 23.1069 126.539 23.5234C126.938 23.9315 127.246 24.4686 127.463 25.1349C127.68 25.8012 127.788 26.6091 127.788 27.5585V36.1036H124.165V27.5336C124.165 26.9339 124.077 26.4633 123.903 26.1219C123.736 25.7721 123.49 25.5264 123.165 25.3848C122.849 25.2349 122.458 25.1599 121.991 25.1599C121.475 25.1599 121.033 25.2557 120.667 25.4472C120.309 25.6388 120.021 25.9053 119.805 26.2468C119.588 26.5799 119.43 26.9714 119.33 27.4211C119.23 27.8709 119.18 28.3539 119.18 28.8703ZM134.496 17.9141V36.1036H130.749V17.9141H134.496ZM141.742 25.6846V28.6079H133.472V25.6846H141.742ZM142.617 17.9141V20.8499H133.472V17.9141H142.617ZM148.364 16.9146V36.1036H144.753V16.9146H148.364ZM150.762 29.4824V29.2201C150.762 28.229 150.904 27.317 151.187 26.4842C151.47 25.643 151.882 24.9142 152.424 24.2979C152.965 23.6816 153.631 23.2027 154.423 22.8612C155.214 22.5114 156.122 22.3365 157.146 22.3365C158.17 22.3365 159.082 22.5114 159.882 22.8612C160.681 23.2027 161.352 23.6816 161.893 24.2979C162.443 24.9142 162.859 25.643 163.143 26.4842C163.426 27.317 163.567 28.229 163.567 29.2201V29.4824C163.567 30.4652 163.426 31.3772 163.143 32.2184C162.859 33.0512 162.443 33.78 161.893 34.4046C161.352 35.0209 160.686 35.4998 159.894 35.8413C159.103 36.1828 158.195 36.3535 157.171 36.3535C156.147 36.3535 155.235 36.1828 154.435 35.8413C153.644 35.4998 152.973 35.0209 152.424 34.4046C151.882 33.78 151.47 33.0512 151.187 32.2184C150.904 31.3772 150.762 30.4652 150.762 29.4824ZM154.36 29.2201V29.4824C154.36 30.0488 154.41 30.5776 154.51 31.069C154.61 31.5604 154.768 31.9935 154.985 32.3683C155.21 32.7347 155.501 33.0221 155.859 33.2303C156.217 33.4385 156.655 33.5426 157.171 33.5426C157.671 33.5426 158.1 33.4385 158.458 33.2303C158.816 33.0221 159.103 32.7347 159.32 32.3683C159.536 31.9935 159.695 31.5604 159.794 31.069C159.903 30.5776 159.957 30.0488 159.957 29.4824V29.2201C159.957 28.6704 159.903 28.154 159.794 27.671C159.695 27.1796 159.532 26.7465 159.307 26.3717C159.091 25.9886 158.803 25.6888 158.445 25.4722C158.087 25.2557 157.654 25.1474 157.146 25.1474C156.638 25.1474 156.205 25.2557 155.847 25.4722C155.497 25.6888 155.21 25.9886 154.985 26.3717C154.768 26.7465 154.61 27.1796 154.51 27.671C154.41 28.154 154.36 28.6704 154.36 29.2201ZM169.639 32.6056L172.45 22.5864H174.736L173.999 26.5216L171.188 36.1036H169.277L169.639 32.6056ZM168.215 22.5864L170.226 32.5932L170.413 36.1036H168.165L164.742 22.5864H168.215ZM177.309 32.4307L179.271 22.5864H182.756L179.333 36.1036H177.097L177.309 32.4307ZM175.048 22.5864L177.847 32.5307L178.234 36.1036H176.31L173.499 26.5341L172.787 22.5864H175.048ZM198.247 29.6199H193.613V26.6965H198.247C198.964 26.6965 199.547 26.5799 199.996 26.3467C200.446 26.1052 200.775 25.7721 200.983 25.3473C201.192 24.9226 201.296 24.4437 201.296 23.9106C201.296 23.3693 201.192 22.8654 200.983 22.399C200.775 21.9326 200.446 21.5578 199.996 21.2746C199.547 20.9915 198.964 20.8499 198.247 20.8499H194.912V36.1036H191.164V17.9141H198.247C199.672 17.9141 200.892 18.1723 201.908 18.6886C202.932 19.1967 203.715 19.9004 204.256 20.7999C204.798 21.6994 205.068 22.728 205.068 23.8856C205.068 25.06 204.798 26.0761 204.256 26.9339C203.715 27.7917 202.932 28.4539 201.908 28.9203C200.892 29.3867 199.672 29.6199 198.247 29.6199ZM211.227 16.9146V36.1036H207.617V16.9146H211.227ZM222.196 32.868V22.5864H225.794V36.1036H222.409L222.196 32.868ZM222.596 30.0946L223.658 30.0696C223.658 30.9691 223.554 31.8061 223.345 32.5807C223.137 33.3469 222.825 34.0132 222.409 34.5795C221.992 35.1375 221.467 35.5748 220.834 35.8913C220.201 36.1994 219.456 36.3535 218.598 36.3535C217.94 36.3535 217.332 36.2619 216.774 36.0787C216.225 35.8871 215.75 35.5914 215.35 35.1917C214.959 34.7836 214.65 34.263 214.426 33.6301C214.209 32.9888 214.101 32.2184 214.101 31.3189V22.5864H217.699V31.3439C217.699 31.7436 217.745 32.0809 217.836 32.3558C217.936 32.6306 218.074 32.8555 218.248 33.0304C218.423 33.2053 218.627 33.3302 218.861 33.4052C219.102 33.4801 219.369 33.5176 219.66 33.5176C220.401 33.5176 220.984 33.3677 221.409 33.0679C221.842 32.7681 222.146 32.36 222.321 31.8436C222.504 31.3189 222.596 30.7359 222.596 30.0946ZM235.851 32.3683C235.851 32.1101 235.776 31.8769 235.626 31.6687C235.476 31.4605 235.197 31.2689 234.789 31.094C234.389 30.9108 233.81 30.7442 233.052 30.5943C232.369 30.4444 231.732 30.257 231.141 30.0321C230.558 29.7989 230.05 29.5199 229.617 29.1951C229.192 28.8703 228.859 28.4872 228.617 28.0458C228.376 27.596 228.255 27.0838 228.255 26.5091C228.255 25.9428 228.376 25.4098 228.617 24.9101C228.867 24.4103 229.221 23.9689 229.679 23.5858C230.146 23.1944 230.712 22.8904 231.378 22.6738C232.053 22.449 232.811 22.3365 233.652 22.3365C234.826 22.3365 235.834 22.5239 236.675 22.8987C237.525 23.2735 238.174 23.7899 238.624 24.4478C239.082 25.0975 239.311 25.8387 239.311 26.6715H235.713C235.713 26.3217 235.638 26.0094 235.489 25.7346C235.347 25.4514 235.122 25.2307 234.814 25.0725C234.514 24.9059 234.123 24.8226 233.64 24.8226C233.24 24.8226 232.894 24.8934 232.603 25.035C232.311 25.1682 232.086 25.3515 231.928 25.5847C231.778 25.8095 231.703 26.0594 231.703 26.3342C231.703 26.5425 231.745 26.7298 231.828 26.8964C231.92 27.0547 232.066 27.2004 232.265 27.3337C232.465 27.4669 232.723 27.5919 233.04 27.7085C233.365 27.8167 233.765 27.9167 234.239 28.0083C235.214 28.2082 236.084 28.4705 236.85 28.7953C237.616 29.1118 238.224 29.5449 238.674 30.0946C239.124 30.6359 239.349 31.348 239.349 32.2309C239.349 32.8305 239.216 33.3802 238.949 33.8799C238.683 34.3796 238.299 34.8169 237.8 35.1917C237.3 35.5581 236.7 35.8455 236.001 36.0537C235.309 36.2536 234.531 36.3535 233.665 36.3535C232.407 36.3535 231.341 36.1286 230.466 35.6789C229.6 35.2291 228.942 34.6586 228.493 33.9674C228.051 33.2678 227.83 32.5515 227.83 31.8186H231.241C231.258 32.31 231.383 32.7056 231.616 33.0054C231.857 33.3052 232.161 33.5218 232.528 33.655C232.903 33.7883 233.306 33.8549 233.74 33.8549C234.206 33.8549 234.593 33.7925 234.901 33.6675C235.21 33.5343 235.443 33.3594 235.601 33.1428C235.768 32.918 235.851 32.6598 235.851 32.3683Z" fill="#E1E1E6"/>
</svg>
