<svg width="56" height="56" viewBox="0 0 56 56" fill="none" xmlns="http://www.w3.org/2000/svg">
<path opacity="0.5" d="M29.2232 0.221225L46.0278 32.1628C46.1002 32.3115 45.9881 32.4831 45.8278 32.4832L36.779 32.4861L28.3617 16.4753C28.2893 16.3266 28.0831 16.3267 27.9951 16.4754L17.9026 32.4923L8.89972 32.4953C8.73936 32.4953 8.64525 32.3238 8.7332 32.1751L28.8567 0.221348C28.9555 0.0840563 29.1617 0.0839876 29.2232 0.221225Z" fill="#00875F"/>
<path opacity="0.5" d="M36.7786 32.4861L41.1345 40.7431C41.2069 40.8918 41.0948 41.0634 40.9344 41.0635L12.8598 41.0841C12.6995 41.0842 12.6053 40.9126 12.6933 40.7639L17.9022 32.4923L36.7786 32.4861Z" fill="#00875F"/>
<path d="M28.3608 16.4755L36.7782 32.4864L17.9018 32.4926L27.9943 16.4757C28.0823 16.3269 28.2884 16.3269 28.3608 16.4755Z" fill="#00875F"/>
</svg>
